<mxfile host="65bd71144e">
    <diagram id="6a731a19-8d31-9384-78a2-239565b7b9f0" name="Page-1">
        <mxGraphModel dx="595" dy="500" grid="1" gridSize="10" guides="1" tooltips="1" connect="1" arrows="1" fold="1" page="1" pageScale="1" pageWidth="1169" pageHeight="827" background="none" math="0" shadow="0">
            <root>
                <mxCell id="0"/>
                <mxCell id="1" parent="0"/>
                <mxCell id="1751" value="" style="edgeStyle=none;rounded=1;jumpStyle=none;html=1;shadow=0;labelBackgroundColor=none;startArrow=none;startFill=0;jettySize=auto;orthogonalLoop=1;strokeColor=#F08E81;strokeWidth=3;fontFamily=Helvetica;fontSize=14;fontColor=#FFFFFF;spacing=5;fontStyle=1;fillColor=#b0e3e6;exitX=1;exitY=0.5;exitDx=0;exitDy=0;entryX=0;entryY=0.5;entryDx=0;entryDy=0;" parent="1" source="1756" target="1769" edge="1">
                    <mxGeometry relative="1" as="geometry">
                        <Array as="points"/>
                    </mxGeometry>
                </mxCell>
                <mxCell id="1753" value="X_holdout" style="rounded=1;whiteSpace=wrap;html=1;shadow=0;labelBackgroundColor=none;strokeColor=none;strokeWidth=3;fillColor=#e85642;fontFamily=Helvetica;fontSize=14;fontColor=#FFFFFF;align=center;spacing=5;fontStyle=1;arcSize=0;perimeterSpacing=2;" parent="1" vertex="1">
                    <mxGeometry x="120" y="313" width="150" height="140" as="geometry"/>
                </mxCell>
                <mxCell id="1756" value="X_train" style="rounded=1;whiteSpace=wrap;html=1;shadow=0;labelBackgroundColor=none;strokeColor=none;strokeWidth=3;fillColor=#f08e81;fontFamily=Helvetica;fontSize=14;fontColor=#FFFFFF;align=center;spacing=5;fontStyle=0;arcSize=0;perimeterSpacing=2;" parent="1" vertex="1">
                    <mxGeometry x="120" y="184" width="150" height="120" as="geometry"/>
                </mxCell>
                <mxCell id="1767" value="Base model" style="rounded=1;whiteSpace=wrap;html=1;shadow=0;labelBackgroundColor=none;strokeColor=none;strokeWidth=3;fillColor=#12AAB5;fontFamily=Helvetica;fontSize=14;fontColor=#FFFFFF;align=center;spacing=5;arcSize=7;perimeterSpacing=2;" parent="1" vertex="1">
                    <mxGeometry x="496" y="353" width="120" height="60" as="geometry"/>
                </mxCell>
                <mxCell id="1769" value="Base model" style="rounded=1;whiteSpace=wrap;html=1;shadow=0;labelBackgroundColor=none;strokeColor=none;strokeWidth=3;fillColor=#12AAB5;fontFamily=Helvetica;fontSize=14;fontColor=#FFFFFF;align=center;spacing=5;arcSize=7;perimeterSpacing=2;" parent="1" vertex="1">
                    <mxGeometry x="340" y="214" width="120" height="60" as="geometry"/>
                </mxCell>
                <mxCell id="TQYjgXyfLCEUGjYd2Lus-1780" value="" style="edgeStyle=none;rounded=1;jumpStyle=none;html=1;shadow=0;labelBackgroundColor=none;startArrow=none;startFill=0;jettySize=auto;orthogonalLoop=1;strokeColor=#E85642;strokeWidth=3;fontFamily=Helvetica;fontSize=14;fontColor=#FFFFFF;spacing=5;fontStyle=1;fillColor=#b0e3e6;exitX=1;exitY=0.5;exitDx=0;exitDy=0;entryX=0;entryY=0.5;entryDx=0;entryDy=0;" parent="1" source="1753" target="1767" edge="1">
                    <mxGeometry relative="1" as="geometry">
                        <mxPoint x="282.9999999999998" y="374.9999999999999" as="sourcePoint"/>
                        <mxPoint x="598" y="277" as="targetPoint"/>
                        <Array as="points"/>
                    </mxGeometry>
                </mxCell>
                <mxCell id="TQYjgXyfLCEUGjYd2Lus-1784" value="&lt;b&gt;&lt;font style=&quot;font-size: 14px&quot;&gt;PREDICT ON &lt;br&gt;HOLDOUT&lt;/font&gt;&lt;/b&gt;" style="text;html=1;align=center;verticalAlign=middle;resizable=0;points=[];autosize=1;strokeColor=none;fillColor=none;" parent="1" vertex="1">
                    <mxGeometry x="496" y="304" width="100" height="40" as="geometry"/>
                </mxCell>
                <mxCell id="TQYjgXyfLCEUGjYd2Lus-1785" value="Meta Model" style="rounded=1;whiteSpace=wrap;html=1;shadow=0;labelBackgroundColor=none;strokeColor=none;strokeWidth=3;fillColor=#2F5B7C;fontFamily=Helvetica;fontSize=14;fontColor=#FFFFFF;align=center;spacing=5;fontStyle=1;arcSize=7;perimeterSpacing=2;" parent="1" vertex="1">
                    <mxGeometry x="659" y="353" width="133" height="60" as="geometry"/>
                </mxCell>
                <mxCell id="TQYjgXyfLCEUGjYd2Lus-1786" value="" style="edgeStyle=none;rounded=1;jumpStyle=none;html=1;shadow=0;labelBackgroundColor=none;startArrow=none;startFill=0;jettySize=auto;orthogonalLoop=1;strokeColor=#12AAB5;strokeWidth=3;fontFamily=Helvetica;fontSize=14;fontColor=#FFFFFF;spacing=5;fontStyle=1;fillColor=#b0e3e6;exitX=1;exitY=0.5;exitDx=0;exitDy=0;entryX=0;entryY=0.5;entryDx=0;entryDy=0;" parent="1" source="1767" target="TQYjgXyfLCEUGjYd2Lus-1785" edge="1">
                    <mxGeometry relative="1" as="geometry">
                        <mxPoint x="898.1560283687943" y="578.4999999999999" as="sourcePoint"/>
                        <mxPoint x="941.8439716312055" y="655.5" as="targetPoint"/>
                    </mxGeometry>
                </mxCell>
                <mxCell id="TQYjgXyfLCEUGjYd2Lus-1787" value="&lt;b&gt;&lt;font style=&quot;font-size: 14px&quot;&gt;TRAIN USING &lt;br&gt;HOULDOUT&lt;br&gt;AND&lt;br&gt;HOLDOUT &lt;br&gt;PREDICTIONS&lt;/font&gt;&lt;/b&gt;" style="text;html=1;align=center;verticalAlign=middle;resizable=0;points=[];autosize=1;strokeColor=none;fillColor=none;" parent="1" vertex="1">
                    <mxGeometry x="670.5" y="243" width="110" height="80" as="geometry"/>
                </mxCell>
                <mxCell id="TQYjgXyfLCEUGjYd2Lus-1788" value="y_t" style="rounded=1;whiteSpace=wrap;html=1;shadow=0;labelBackgroundColor=none;strokeColor=none;strokeWidth=3;fillColor=#f08e81;fontFamily=Helvetica;fontSize=14;fontColor=#FFFFFF;align=center;spacing=5;fontStyle=0;arcSize=0;perimeterSpacing=2;" parent="1" vertex="1">
                    <mxGeometry x="67" y="184" width="40" height="120" as="geometry"/>
                </mxCell>
                <mxCell id="TQYjgXyfLCEUGjYd2Lus-1789" value="y_h" style="rounded=1;whiteSpace=wrap;html=1;shadow=0;labelBackgroundColor=none;strokeColor=none;strokeWidth=3;fillColor=#e85642;fontFamily=Helvetica;fontSize=14;fontColor=#FFFFFF;align=center;spacing=5;fontStyle=1;arcSize=0;perimeterSpacing=2;" parent="1" vertex="1">
                    <mxGeometry x="67" y="312" width="40" height="140" as="geometry"/>
                </mxCell>
                <mxCell id="TQYjgXyfLCEUGjYd2Lus-1790" value="" style="edgeStyle=none;rounded=1;jumpStyle=none;html=1;shadow=0;labelBackgroundColor=none;startArrow=none;startFill=0;jettySize=auto;orthogonalLoop=1;strokeColor=#E85642;strokeWidth=3;fontFamily=Helvetica;fontSize=14;fontColor=#FFFFFF;spacing=5;fontStyle=1;fillColor=#b0e3e6;exitX=0.5;exitY=1;exitDx=0;exitDy=0;" parent="1" source="TQYjgXyfLCEUGjYd2Lus-1789" edge="1">
                    <mxGeometry relative="1" as="geometry">
                        <mxPoint x="87" y="463" as="sourcePoint"/>
                        <mxPoint x="726" y="412" as="targetPoint"/>
                        <Array as="points">
                            <mxPoint x="87" y="474"/>
                            <mxPoint x="726" y="474"/>
                        </Array>
                    </mxGeometry>
                </mxCell>
                <mxCell id="TQYjgXyfLCEUGjYd2Lus-1791" value="" style="edgeStyle=none;rounded=1;jumpStyle=none;html=1;shadow=0;labelBackgroundColor=none;startArrow=none;startFill=0;jettySize=auto;orthogonalLoop=1;strokeColor=#F08E81;strokeWidth=3;fontFamily=Helvetica;fontSize=14;fontColor=#FFFFFF;spacing=5;fontStyle=1;fillColor=#b0e3e6;exitX=0.5;exitY=0;exitDx=0;exitDy=0;entryX=0.5;entryY=0.063;entryDx=0;entryDy=0;entryPerimeter=0;" parent="1" source="TQYjgXyfLCEUGjYd2Lus-1788" target="1769" edge="1">
                    <mxGeometry relative="1" as="geometry">
                        <mxPoint x="55" y="183.9999999999999" as="sourcePoint"/>
                        <mxPoint x="374" y="213.0000000000001" as="targetPoint"/>
                        <Array as="points">
                            <mxPoint x="87" y="163"/>
                            <mxPoint x="400" y="163"/>
                        </Array>
                    </mxGeometry>
                </mxCell>
                <mxCell id="TQYjgXyfLCEUGjYd2Lus-1793" value="&lt;b&gt;&lt;font style=&quot;font-size: 16px&quot;&gt;STEP 1&lt;br&gt;TRAIN THE &lt;br&gt;BASE MODEL&lt;/font&gt;&lt;/b&gt;" style="text;html=1;align=center;verticalAlign=middle;resizable=0;points=[];autosize=1;strokeColor=none;fillColor=none;" parent="1" vertex="1">
                    <mxGeometry x="330" y="40" width="120" height="50" as="geometry"/>
                </mxCell>
                <mxCell id="TQYjgXyfLCEUGjYd2Lus-1796" value="&lt;b&gt;&lt;font&gt;&lt;font style=&quot;font-size: 16px&quot;&gt;STEP 2&amp;nbsp;&lt;br&gt;PREDICT ON&lt;br&gt;HOLDOUT &lt;br&gt;AND TEST&lt;/font&gt;&lt;br&gt;&lt;/font&gt;&lt;/b&gt;" style="text;html=1;align=center;verticalAlign=middle;resizable=0;points=[];autosize=1;strokeColor=none;fillColor=none;" parent="1" vertex="1">
                    <mxGeometry x="489" y="40" width="110" height="70" as="geometry"/>
                </mxCell>
                <mxCell id="TQYjgXyfLCEUGjYd2Lus-1797" value="&lt;font&gt;&lt;font style=&quot;font-size: 16px&quot;&gt;&lt;b&gt;STEP 3&lt;/b&gt;&lt;br&gt;&lt;b&gt;TRAIN THE &lt;br&gt;META MODEL&lt;br&gt;&amp;nbsp;IN BASE MODEL &lt;br&gt;PREDICTIONS&lt;/b&gt;&lt;/font&gt;&lt;br&gt;&lt;/font&gt;" style="text;html=1;align=center;verticalAlign=middle;resizable=0;points=[];autosize=1;strokeColor=none;fillColor=none;" parent="1" vertex="1">
                    <mxGeometry x="647.5" y="45" width="150" height="80" as="geometry"/>
                </mxCell>
                <mxCell id="TQYjgXyfLCEUGjYd2Lus-1798" value="" style="edgeStyle=none;rounded=1;jumpStyle=none;html=1;shadow=0;labelBackgroundColor=none;startArrow=none;startFill=0;jettySize=auto;orthogonalLoop=1;strokeColor=#E85642;strokeWidth=3;fontFamily=Helvetica;fontSize=14;fontColor=#FFFFFF;spacing=5;fontStyle=1;fillColor=#b0e3e6;" parent="1" edge="1">
                    <mxGeometry relative="1" as="geometry">
                        <mxPoint x="195" y="673" as="sourcePoint"/>
                        <mxPoint x="195" y="675.0000000000002" as="targetPoint"/>
                    </mxGeometry>
                </mxCell>
                <mxCell id="TQYjgXyfLCEUGjYd2Lus-1801" value="X_test" style="rounded=1;whiteSpace=wrap;html=1;shadow=0;labelBackgroundColor=none;strokeColor=none;strokeWidth=3;fillColor=#1699d3;fontFamily=Helvetica;fontSize=14;fontColor=#FFFFFF;align=center;spacing=5;fontStyle=1;arcSize=0;perimeterSpacing=2;" parent="1" vertex="1">
                    <mxGeometry x="120" y="563" width="150" height="130" as="geometry"/>
                </mxCell>
                <mxCell id="TQYjgXyfLCEUGjYd2Lus-1804" value="Base model" style="rounded=1;whiteSpace=wrap;html=1;shadow=0;labelBackgroundColor=none;strokeColor=none;strokeWidth=3;fillColor=#12AAB5;fontFamily=Helvetica;fontSize=14;fontColor=#FFFFFF;align=center;spacing=5;arcSize=7;perimeterSpacing=2;" parent="1" vertex="1">
                    <mxGeometry x="494" y="598" width="120" height="60" as="geometry"/>
                </mxCell>
                <mxCell id="TQYjgXyfLCEUGjYd2Lus-1805" value="" style="edgeStyle=none;rounded=0;jumpStyle=none;html=1;shadow=0;labelBackgroundColor=none;startArrow=none;startFill=0;endArrow=classic;endFill=1;jettySize=auto;orthogonalLoop=1;strokeColor=#1699D3;strokeWidth=3;fontFamily=Helvetica;fontSize=14;fontColor=#FFFFFF;spacing=5;exitX=1;exitY=0.5;exitDx=0;exitDy=0;entryX=0;entryY=0.5;entryDx=0;entryDy=0;" parent="1" source="TQYjgXyfLCEUGjYd2Lus-1801" target="TQYjgXyfLCEUGjYd2Lus-1804" edge="1">
                    <mxGeometry relative="1" as="geometry">
                        <mxPoint x="290" y="621" as="sourcePoint"/>
                        <mxPoint x="527" y="572.9975301204818" as="targetPoint"/>
                    </mxGeometry>
                </mxCell>
                <mxCell id="TQYjgXyfLCEUGjYd2Lus-1813" value="&lt;b&gt;&lt;font style=&quot;font-size: 14px&quot;&gt;TRAIN&lt;/font&gt;&lt;/b&gt;" style="text;html=1;align=center;verticalAlign=middle;resizable=0;points=[];autosize=1;strokeColor=none;fillColor=none;" parent="1" vertex="1">
                    <mxGeometry x="335" y="186" width="60" height="20" as="geometry"/>
                </mxCell>
                <mxCell id="TQYjgXyfLCEUGjYd2Lus-1816" value="&lt;b&gt;&lt;font style=&quot;font-size: 14px&quot;&gt;PREDICT &lt;br&gt;ON TEST&lt;/font&gt;&lt;/b&gt;" style="text;html=1;align=center;verticalAlign=middle;resizable=0;points=[];autosize=1;strokeColor=none;fillColor=none;" parent="1" vertex="1">
                    <mxGeometry x="514" y="546" width="80" height="40" as="geometry"/>
                </mxCell>
                <mxCell id="TQYjgXyfLCEUGjYd2Lus-1818" value="" style="edgeStyle=none;rounded=1;jumpStyle=none;html=1;shadow=0;labelBackgroundColor=none;startArrow=none;startFill=0;jettySize=auto;orthogonalLoop=1;strokeColor=#12AAB5;strokeWidth=3;fontFamily=Helvetica;fontSize=14;fontColor=#FFFFFF;spacing=5;fontStyle=1;fillColor=#b0e3e6;exitX=1;exitY=0.5;exitDx=0;exitDy=0;entryX=0;entryY=0.5;entryDx=0;entryDy=0;" parent="1" source="TQYjgXyfLCEUGjYd2Lus-1804" target="TQYjgXyfLCEUGjYd2Lus-1819" edge="1">
                    <mxGeometry relative="1" as="geometry">
                        <mxPoint x="621.9999999999998" y="372.9999999999999" as="sourcePoint"/>
                        <mxPoint x="680" y="628" as="targetPoint"/>
                        <Array as="points"/>
                    </mxGeometry>
                </mxCell>
                <mxCell id="TQYjgXyfLCEUGjYd2Lus-1819" value="Meta Model" style="rounded=1;whiteSpace=wrap;html=1;shadow=0;labelBackgroundColor=none;strokeColor=none;strokeWidth=3;fillColor=#2F5B7C;fontFamily=Helvetica;fontSize=14;fontColor=#FFFFFF;align=center;spacing=5;fontStyle=1;arcSize=7;perimeterSpacing=2;" parent="1" vertex="1">
                    <mxGeometry x="846" y="598" width="133" height="60" as="geometry"/>
                </mxCell>
                <mxCell id="TQYjgXyfLCEUGjYd2Lus-1820" value="" style="endArrow=none;dashed=1;html=1;dashPattern=1 3;strokeWidth=4;rounded=1;fontSize=14;strokeColor=#7D7D7D;" parent="1" edge="1">
                    <mxGeometry width="50" height="50" relative="1" as="geometry">
                        <mxPoint x="814" y="756" as="sourcePoint"/>
                        <mxPoint x="814" y="89" as="targetPoint"/>
                        <Array as="points">
                            <mxPoint x="814" y="457"/>
                            <mxPoint x="814" y="220"/>
                        </Array>
                    </mxGeometry>
                </mxCell>
                <mxCell id="TQYjgXyfLCEUGjYd2Lus-1821" value="&lt;b&gt;&lt;font style=&quot;font-size: 16px&quot;&gt;STEP 4&lt;br&gt;FINAL &lt;br&gt;PREDICTIONS&lt;/font&gt;&lt;/b&gt;" style="text;html=1;align=center;verticalAlign=middle;resizable=0;points=[];autosize=1;strokeColor=none;fillColor=none;" parent="1" vertex="1">
                    <mxGeometry x="841" y="40" width="120" height="50" as="geometry"/>
                </mxCell>
                <mxCell id="QiWuCmleO5MabE-RrJOM-1770" style="edgeStyle=orthogonalEdgeStyle;rounded=1;orthogonalLoop=1;jettySize=auto;html=1;exitX=0.5;exitY=1;exitDx=0;exitDy=0;entryX=0.5;entryY=1;entryDx=0;entryDy=0;strokeWidth=3;strokeColor=#8FCC52;" parent="1" source="TQYjgXyfLCEUGjYd2Lus-1822" target="QiWuCmleO5MabE-RrJOM-1769" edge="1">
                    <mxGeometry relative="1" as="geometry">
                        <Array as="points">
                            <mxPoint x="1075" y="740"/>
                            <mxPoint x="89" y="740"/>
                        </Array>
                    </mxGeometry>
                </mxCell>
                <mxCell id="TQYjgXyfLCEUGjYd2Lus-1822" value="&lt;b&gt;Blending&lt;br&gt;Predicion&lt;/b&gt;" style="rounded=1;whiteSpace=wrap;html=1;fontSize=14;fillColor=#8FCC52;strokeColor=none;arcSize=50;strokeWidth=4;" parent="1" vertex="1">
                    <mxGeometry x="1010" y="598" width="130" height="60" as="geometry"/>
                </mxCell>
                <mxCell id="TQYjgXyfLCEUGjYd2Lus-1823" value="" style="edgeStyle=none;rounded=1;jumpStyle=none;html=1;shadow=0;labelBackgroundColor=none;startArrow=none;startFill=0;jettySize=auto;orthogonalLoop=1;strokeColor=#12AAB5;strokeWidth=3;fontFamily=Helvetica;fontSize=14;fontColor=#FFFFFF;spacing=5;fontStyle=1;fillColor=#b0e3e6;exitX=1;exitY=0.5;exitDx=0;exitDy=0;entryX=0;entryY=0.5;entryDx=0;entryDy=0;" parent="1" source="TQYjgXyfLCEUGjYd2Lus-1819" target="TQYjgXyfLCEUGjYd2Lus-1822" edge="1">
                    <mxGeometry relative="1" as="geometry">
                        <mxPoint x="621.9999999999998" y="638" as="sourcePoint"/>
                        <mxPoint x="854" y="638" as="targetPoint"/>
                        <Array as="points"/>
                    </mxGeometry>
                </mxCell>
                <mxCell id="TQYjgXyfLCEUGjYd2Lus-1826" value="&lt;b&gt;&lt;font&gt;&lt;font style=&quot;font-size: 16px&quot;&gt;STEP 0&lt;br&gt;SPLIT TRAIN &lt;br&gt;DATA&lt;/font&gt;&lt;br&gt;&lt;/font&gt;&lt;/b&gt;" style="text;html=1;align=center;verticalAlign=middle;resizable=0;points=[];autosize=1;strokeColor=none;fillColor=none;" parent="1" vertex="1">
                    <mxGeometry x="130" y="40" width="110" height="50" as="geometry"/>
                </mxCell>
                <mxCell id="TQYjgXyfLCEUGjYd2Lus-1828" value="&lt;b&gt;&lt;font style=&quot;font-size: 14px&quot;&gt;PREDICT USING &lt;br&gt;PREDICTIONS &lt;br&gt;FROM THE &lt;br&gt;BASE MODELS &lt;br&gt;ON TEST&lt;br&gt;AND THE TEST&lt;/font&gt;&lt;br&gt;&lt;/b&gt;" style="text;html=1;align=center;verticalAlign=middle;resizable=0;points=[];autosize=1;strokeColor=none;fillColor=none;" parent="1" vertex="1">
                    <mxGeometry x="847.5" y="486" width="130" height="100" as="geometry"/>
                </mxCell>
                <mxCell id="TQYjgXyfLCEUGjYd2Lus-1829" value="" style="edgeStyle=none;rounded=1;jumpStyle=none;html=1;shadow=0;labelBackgroundColor=none;startArrow=none;startFill=0;jettySize=auto;orthogonalLoop=1;strokeColor=#E85642;strokeWidth=3;fontFamily=Helvetica;fontSize=14;fontColor=#FFFFFF;spacing=5;fontStyle=1;fillColor=#b0e3e6;exitX=0.5;exitY=1;exitDx=0;exitDy=0;" parent="1" source="1753" edge="1">
                    <mxGeometry relative="1" as="geometry">
                        <mxPoint x="195" y="465.0000000000001" as="sourcePoint"/>
                        <mxPoint x="726" y="412" as="targetPoint"/>
                        <Array as="points">
                            <mxPoint x="195" y="473"/>
                            <mxPoint x="726" y="473"/>
                        </Array>
                    </mxGeometry>
                </mxCell>
                <mxCell id="TQYjgXyfLCEUGjYd2Lus-1832" value="" style="edgeStyle=none;rounded=1;jumpStyle=none;html=1;shadow=0;labelBackgroundColor=none;startArrow=none;startFill=0;jettySize=auto;orthogonalLoop=1;strokeColor=#1699D3;strokeWidth=3;fontFamily=Helvetica;fontSize=14;fontColor=#FFFFFF;spacing=5;fontStyle=1;fillColor=#b0e3e6;entryX=0.5;entryY=1;entryDx=0;entryDy=0;exitX=0.468;exitY=0.985;exitDx=0;exitDy=0;exitPerimeter=0;" parent="1" source="TQYjgXyfLCEUGjYd2Lus-1801" target="TQYjgXyfLCEUGjYd2Lus-1819" edge="1">
                    <mxGeometry relative="1" as="geometry">
                        <mxPoint x="190" y="699.0000000000001" as="sourcePoint"/>
                        <mxPoint x="720.5" y="658" as="targetPoint"/>
                        <Array as="points">
                            <mxPoint x="190" y="714"/>
                            <mxPoint x="913" y="714"/>
                        </Array>
                    </mxGeometry>
                </mxCell>
                <mxCell id="QiWuCmleO5MabE-RrJOM-1769" value="?" style="rounded=1;whiteSpace=wrap;html=1;shadow=0;labelBackgroundColor=none;strokeColor=none;strokeWidth=3;fillColor=#6B6B6B;fontFamily=Helvetica;fontSize=14;fontColor=#333333;align=center;spacing=5;fontStyle=1;arcSize=0;perimeterSpacing=2;" parent="1" vertex="1">
                    <mxGeometry x="69" y="562" width="40" height="131" as="geometry"/>
                </mxCell>
                <mxCell id="QiWuCmleO5MabE-RrJOM-1771" value="" style="endArrow=none;dashed=1;html=1;dashPattern=1 3;strokeWidth=4;rounded=1;fontSize=14;strokeColor=#7D7D7D;" parent="1" edge="1">
                    <mxGeometry width="50" height="50" relative="1" as="geometry">
                        <mxPoint x="630" y="757" as="sourcePoint"/>
                        <mxPoint x="630" y="90" as="targetPoint"/>
                        <Array as="points">
                            <mxPoint x="630" y="458"/>
                        </Array>
                    </mxGeometry>
                </mxCell>
                <mxCell id="QiWuCmleO5MabE-RrJOM-1772" value="" style="endArrow=none;dashed=1;html=1;dashPattern=1 3;strokeWidth=4;rounded=1;fontSize=14;strokeColor=#7D7D7D;" parent="1" edge="1">
                    <mxGeometry width="50" height="50" relative="1" as="geometry">
                        <mxPoint x="470" y="756" as="sourcePoint"/>
                        <mxPoint x="470" y="89" as="targetPoint"/>
                        <Array as="points">
                            <mxPoint x="470" y="457"/>
                        </Array>
                    </mxGeometry>
                </mxCell>
                <mxCell id="HjyDdTlbd91ytMAyyrWf-1769" value="" style="shape=flexArrow;endArrow=classic;html=1;rounded=0;fontSize=16;strokeColor=none;strokeWidth=1;width=11.428571428571429;endSize=7.671428571428572;endWidth=23.6734693877551;fillColor=#A8A8A8;gradientColor=#EDEDED;gradientDirection=north;" parent="1" edge="1">
                    <mxGeometry width="50" height="50" relative="1" as="geometry">
                        <mxPoint x="40" y="302" as="sourcePoint"/>
                        <mxPoint x="40" y="542" as="targetPoint"/>
                    </mxGeometry>
                </mxCell>
                <mxCell id="HjyDdTlbd91ytMAyyrWf-1770" value="" style="shape=flexArrow;endArrow=classic;html=1;rounded=0;fontSize=16;strokeColor=none;strokeWidth=1;width=11.428571428571429;endSize=7.671428571428572;endWidth=23.6734693877551;fillColor=#A8A8A8;gradientColor=#EDEDED;gradientDirection=north;" parent="1" edge="1">
                    <mxGeometry width="50" height="50" relative="1" as="geometry">
                        <mxPoint x="450" y="770" as="sourcePoint"/>
                        <mxPoint x="685.5" y="772" as="targetPoint"/>
                    </mxGeometry>
                </mxCell>
                <mxCell id="HjyDdTlbd91ytMAyyrWf-1771" value="" style="endArrow=none;dashed=1;html=1;dashPattern=1 3;strokeWidth=4;rounded=1;fontSize=14;strokeColor=#7D7D7D;" parent="1" edge="1">
                    <mxGeometry width="50" height="50" relative="1" as="geometry">
                        <mxPoint x="300" y="759" as="sourcePoint"/>
                        <mxPoint x="300" y="92" as="targetPoint"/>
                        <Array as="points">
                            <mxPoint x="300" y="460"/>
                        </Array>
                    </mxGeometry>
                </mxCell>
            </root>
        </mxGraphModel>
    </diagram>
</mxfile>